{"title":"Later,Live With Jools Holland.s36eo7.(25th May 2010)[DTV-RIP-Div","uid":5591747,"size":352379969,"categoryP":"video","categoryS":"music_videos","magnet":"?xt=urn:btih:1346ff9fdca595a2108cd29f272ce02a29cb4018&amp;dn=Later%2CLive+With+Jools+Holland.s36eo7.%2825th+May+2010%29%5BDTV-RIP-Div&amp;tr=udp%3A%2F%2Ftracker.openbittorrent.com%3A80&amp;tr=udp%3A%2F%2Fopen.demonii.com%3A1337&amp;tr=udp%3A%2F%2Ftracker.coppersurfer.tk%3A6969&amp;tr=udp%3A%2F%2Fexodus.desync.com%3A6969","seeders":0,"leechers":0,"uploader":"seanprince","files":-1,"time":1274887515,"description":"Later,Live With Jools Holland (BBC2,Tom Jones,Vampire Weekend,)s36eo7[DTV-RIP-Divx]\n\nFirst Shown On BBC 2 On Tuesday 25th May 2010\n\nDescription:\n\nJoining Jools for the final show of the series are New York-based Vampire Weekend, whose second album Contra saw them top the US charts earlier this year; Leeds-born singer-songwriter Corinne Bailey Rae, with tracks from her second album The Sea; MGMT, whose new album Congratulations sees the duo explore a more psychedelic side to their sound, working with the likes of Sonic Boom; and Canadian duo Crystal Castles who are in the studio to perform a song or two from their acclaimed self-titled second album. Plus the legendary Sir Tom Jones makes an appearance on the show ahead of his 70th birthday, and, from Toronto, four piece indie rock\nband Metric make their UK TV debut.\n\nGeneral\nComplete name : Later live, With Jools Holland.s36eo7.divx\nFormat : AVI\nFormat/Info : Audio Video Interleave\nFile size : 336 MiB\nDuration : 29mn 59s\nOverall bit rate : 1 566 Kbps\n\nVideo\nID : 0\nFormat : MPEG-4 Visual\nFormat settings, BVOP : Yes\nFormat settings, QPel : No\nFormat settings, GMC : No warppoints\nFormat settings, Matrix : Default (H.263)\nMuxing mode : Packed bitstream\nCodec ID : DX50\nCodec ID/Hint : DivX 5\nDuration : 29mn 59s\nBit rate : 1 301 Kbps\nWidth : 680 pixels\nHeight : 384 pixels\nDisplay aspect ratio : 16/9\nFrame rate : 25.000 fps\nResolution : 24 bits\nColorimetry : 4:2:0\nScan type : Progressive\nBits/(Pixel*Frame) : 0.199\nStream size : 279 MiB (83%)\nTitle : Video\nWriting library : DivX 6.8.2 (UTC 2008-05-17)\n\nAudio\nID : 1\nFormat : AC-3\nFormat/Info : Audio Coding 3\nCodec ID : 2000\nDuration : 29mn 59s\nBit rate mode : Constant\nBit rate : 256 Kbps\nChannel(s) : 2 channels\nChannel positions : L R\nSampling rate : 48.0 KHz\nStream size : 54.9 MiB (16%)\nAlignment : Split accross interleaves\nInterleave, duration : 40 ms (1.00 video frame)\nInterleave, preload duration : 500 ms\n","torrent":{"xt":"urn:btih:1346ff9fdca595a2108cd29f272ce02a29cb4018","amp;dn":"Later%2CLive+With+Jools+Holland.s36eo7.%2825th+May+2010%29%5BDTV-RIP-Div","amp;tr":["udp%3A%2F%2Ftracker.openbittorrent.com%3A80","udp%3A%2F%2Fopen.demonii.com%3A1337","udp%3A%2F%2Ftracker.coppersurfer.tk%3A6969","udp%3A%2F%2Fexodus.desync.com%3A6969"],"infoHash":"1346ff9fdca595a2108cd29f272ce02a29cb4018","infoHashBuffer":{"type":"Buffer","data":[19,70,255,159,220,165,149,162,16,140,210,159,39,44,224,42,41,203,64,24]},"announce":[],"urlList":[]}}